<mxfile host="drawio-plugin" modified="2022-03-29T05:00:53.074Z" agent="5.0 (Macintosh; Intel Mac OS X 10_15_7) AppleWebKit/537.36 (KHTML, like Gecko) Chrome/87.0.4280.141 Safari/537.36" etag="OpdR3lBHlIKhiXfFwZnC" version="15.5.4" type="embed"><diagram id="C5RBs43oDa-KdzZeNtuy" name="Page-1"><mxGraphModel dx="707" dy="1523" grid="1" gridSize="10" guides="1" tooltips="1" connect="1" arrows="1" fold="1" page="1" pageScale="1" pageWidth="827" pageHeight="1169" math="0" shadow="0"><root><mxCell id="WIyWlLk6GJQsqaUBKTNV-0"/><mxCell id="WIyWlLk6GJQsqaUBKTNV-1" parent="WIyWlLk6GJQsqaUBKTNV-0"/><mxCell id="zkfFHV4jXpPFQw0GAbJ--12" value="" style="endArrow=block;endSize=10;endFill=0;shadow=0;strokeWidth=1;rounded=0;edgeStyle=elbowEdgeStyle;elbow=vertical;exitX=0.5;exitY=0;exitDx=0;exitDy=0;entryX=0.474;entryY=1.005;entryDx=0;entryDy=0;entryPerimeter=0;" parent="WIyWlLk6GJQsqaUBKTNV-1" source="UiLrThrdoHXxxW19HXCz-23" target="UiLrThrdoHXxxW19HXCz-12" edge="1"><mxGeometry width="160" relative="1" as="geometry"><mxPoint x="160" y="350" as="sourcePoint"/><mxPoint x="300" y="200" as="targetPoint"/><Array as="points"><mxPoint x="310" y="210"/><mxPoint x="280" y="130"/><mxPoint x="260" y="240"/><mxPoint x="340" y="200"/><mxPoint x="170" y="200"/><mxPoint x="260" y="280"/><mxPoint x="170" y="240"/><mxPoint x="420" y="220"/><mxPoint x="280" y="300"/></Array></mxGeometry></mxCell><mxCell id="zkfFHV4jXpPFQw0GAbJ--16" value="" style="endArrow=block;endSize=10;endFill=0;shadow=0;strokeWidth=1;rounded=0;edgeStyle=elbowEdgeStyle;elbow=vertical;exitX=0.5;exitY=0;exitDx=0;exitDy=0;" parent="WIyWlLk6GJQsqaUBKTNV-1" source="UiLrThrdoHXxxW19HXCz-66" edge="1"><mxGeometry width="160" relative="1" as="geometry"><mxPoint x="560" y="270" as="sourcePoint"/><mxPoint x="380" y="100" as="targetPoint"/><Array as="points"><mxPoint x="540" y="210"/><mxPoint x="570" y="180"/><mxPoint x="500" y="280"/><mxPoint x="490" y="250"/><mxPoint x="520" y="260"/></Array></mxGeometry></mxCell><mxCell id="UiLrThrdoHXxxW19HXCz-8" value="&lt;b&gt;&lt;font style=&quot;font-size: 16px&quot;&gt;&amp;lt;&amp;lt;Interface&amp;gt;&amp;gt;&lt;/font&gt;&lt;/b&gt;" style="text;html=1;align=center;verticalAlign=middle;resizable=0;points=[];autosize=1;strokeColor=none;fillColor=none;" parent="WIyWlLk6GJQsqaUBKTNV-1" vertex="1"><mxGeometry x="319" y="-160" width="120" height="20" as="geometry"/></mxCell><mxCell id="UiLrThrdoHXxxW19HXCz-9" value="FileProcessor" style="swimlane;fontStyle=1;align=center;verticalAlign=top;childLayout=stackLayout;horizontal=1;startSize=26;horizontalStack=0;resizeParent=1;resizeParentMax=0;resizeLast=0;collapsible=1;marginBottom=0;" parent="WIyWlLk6GJQsqaUBKTNV-1" vertex="1"><mxGeometry x="270" y="-130" width="230" height="230" as="geometry"><mxRectangle x="230" y="110" width="120" height="26" as="alternateBounds"/></mxGeometry></mxCell><mxCell id="UiLrThrdoHXxxW19HXCz-11" value="" style="line;strokeWidth=1;fillColor=none;align=left;verticalAlign=middle;spacingTop=-1;spacingLeft=3;spacingRight=3;rotatable=0;labelPosition=right;points=[];portConstraint=eastwest;" parent="UiLrThrdoHXxxW19HXCz-9" vertex="1"><mxGeometry y="26" width="230" height="8" as="geometry"/></mxCell><mxCell id="UiLrThrdoHXxxW19HXCz-12" value="+ processFile(FILETYPE: Enum): String&#10;&#10;+  readFile(Path): void&#10;&#10;+ moveFile(Path, Path): void&#10;&#10;+ writeStatToFile(Path): void&#10;&#10;+ getMostUsedWords():   String&#10;&#10;+ getNumberOfDots(): int &#10;&#10;+ getNumberOfWords(): int&#10;&#10;&#10;&#10;&#10;&#10;&#10;&#10;&#10;" style="text;align=left;verticalAlign=top;spacingLeft=4;spacingRight=4;overflow=hidden;rotatable=0;points=[[0,0.5],[1,0.5]];portConstraint=eastwest;" parent="UiLrThrdoHXxxW19HXCz-9" vertex="1"><mxGeometry y="34" width="230" height="196" as="geometry"/></mxCell><mxCell id="UiLrThrdoHXxxW19HXCz-18" value="" style="endArrow=block;endSize=10;endFill=0;shadow=0;strokeWidth=1;rounded=0;edgeStyle=elbowEdgeStyle;elbow=vertical;exitX=0.474;exitY=-0.004;exitDx=0;exitDy=0;exitPerimeter=0;entryX=0.474;entryY=1;entryDx=0;entryDy=0;entryPerimeter=0;" parent="WIyWlLk6GJQsqaUBKTNV-1" source="UiLrThrdoHXxxW19HXCz-62" target="UiLrThrdoHXxxW19HXCz-12" edge="1"><mxGeometry width="160" relative="1" as="geometry"><mxPoint x="680" y="260" as="sourcePoint"/><mxPoint x="379" y="220" as="targetPoint"/><Array as="points"><mxPoint x="410" y="240"/><mxPoint x="440" y="130"/><mxPoint x="379" y="200"/><mxPoint x="380" y="260"/><mxPoint x="379" y="290"/><mxPoint x="385" y="280"/><mxPoint x="430" y="260"/><mxPoint x="400" y="240"/><mxPoint x="570" y="250"/><mxPoint x="340" y="230"/><mxPoint x="580" y="140"/><mxPoint x="600" y="190"/><mxPoint x="640" y="210"/><mxPoint x="720" y="190"/><mxPoint x="750" y="230"/></Array></mxGeometry></mxCell><mxCell id="UiLrThrdoHXxxW19HXCz-23" value="PDFFileProcessor Class" style="swimlane;fontStyle=1;align=center;verticalAlign=top;childLayout=stackLayout;horizontal=1;startSize=26;horizontalStack=0;resizeParent=1;resizeParentMax=0;resizeLast=0;collapsible=1;marginBottom=0;" parent="WIyWlLk6GJQsqaUBKTNV-1" vertex="1"><mxGeometry x="30" y="310" width="230" height="300" as="geometry"><mxRectangle x="30" y="310" width="60" height="26" as="alternateBounds"/></mxGeometry></mxCell><mxCell id="UiLrThrdoHXxxW19HXCz-24" value="- fileExtension : String&#10;" style="text;strokeColor=none;fillColor=none;align=left;verticalAlign=top;spacingLeft=4;spacingRight=4;overflow=hidden;rotatable=0;points=[[0,0.5],[1,0.5]];portConstraint=eastwest;" parent="UiLrThrdoHXxxW19HXCz-23" vertex="1"><mxGeometry y="26" width="230" height="34" as="geometry"/></mxCell><mxCell id="UiLrThrdoHXxxW19HXCz-25" value="" style="line;strokeWidth=1;fillColor=none;align=left;verticalAlign=middle;spacingTop=-1;spacingLeft=3;spacingRight=3;rotatable=0;labelPosition=right;points=[];portConstraint=eastwest;" parent="UiLrThrdoHXxxW19HXCz-23" vertex="1"><mxGeometry y="60" width="230" height="8" as="geometry"/></mxCell><mxCell id="UiLrThrdoHXxxW19HXCz-26" value="+ processFile(FILETYPE: Enum): String&#10;&#10;-  readFile(Path): void&#10;&#10;-  moveFile(Path, Path): void&#10;&#10;-  writeStatToFile(Path): void&#10;&#10;-  getMostUsedWords():   String&#10;&#10;-  getNumberOfDots(): int &#10;&#10;-  getNumberOfWords(): int&#10;&#10;+ getStatistics(): StatisticsDTO" style="text;align=left;verticalAlign=top;spacingLeft=4;spacingRight=4;overflow=hidden;rotatable=0;points=[[0,0.5],[1,0.5]];portConstraint=eastwest;" parent="UiLrThrdoHXxxW19HXCz-23" vertex="1"><mxGeometry y="68" width="230" height="232" as="geometry"/></mxCell><mxCell id="UiLrThrdoHXxxW19HXCz-33" value="&lt;b&gt;&lt;font style=&quot;font-size: 15px&quot;&gt;Implements&lt;/font&gt;&lt;/b&gt;" style="text;html=1;align=center;verticalAlign=middle;resizable=0;points=[];autosize=1;strokeColor=none;fillColor=none;strokeWidth=10;" parent="WIyWlLk6GJQsqaUBKTNV-1" vertex="1"><mxGeometry x="95" y="290" width="100" height="20" as="geometry"/></mxCell><mxCell id="UiLrThrdoHXxxW19HXCz-34" value="&lt;b&gt;&lt;font style=&quot;font-size: 16px&quot;&gt;Implements&lt;/font&gt;&lt;/b&gt;" style="text;html=1;align=center;verticalAlign=middle;resizable=0;points=[];autosize=1;strokeColor=none;fillColor=none;" parent="WIyWlLk6GJQsqaUBKTNV-1" vertex="1"><mxGeometry x="575" y="290" width="100" height="20" as="geometry"/></mxCell><mxCell id="UiLrThrdoHXxxW19HXCz-35" value="&lt;b&gt;&lt;font style=&quot;font-size: 15px&quot;&gt;Implements&lt;/font&gt;&lt;/b&gt;" style="text;html=1;align=center;verticalAlign=middle;resizable=0;points=[];autosize=1;strokeColor=none;fillColor=none;" parent="WIyWlLk6GJQsqaUBKTNV-1" vertex="1"><mxGeometry x="329" y="290" width="100" height="20" as="geometry"/></mxCell><mxCell id="UiLrThrdoHXxxW19HXCz-36" value="FileProcessorFactory Class" style="swimlane;fontStyle=1;align=center;verticalAlign=top;childLayout=stackLayout;horizontal=1;startSize=26;horizontalStack=0;resizeParent=1;resizeParentMax=0;resizeLast=0;collapsible=1;marginBottom=0;" parent="WIyWlLk6GJQsqaUBKTNV-1" vertex="1"><mxGeometry x="900" y="440" width="410" height="64" as="geometry"/></mxCell><mxCell id="UiLrThrdoHXxxW19HXCz-38" value="" style="line;strokeWidth=1;fillColor=none;align=left;verticalAlign=middle;spacingTop=-1;spacingLeft=3;spacingRight=3;rotatable=0;labelPosition=right;points=[];portConstraint=eastwest;" parent="UiLrThrdoHXxxW19HXCz-36" vertex="1"><mxGeometry y="26" width="410" height="8" as="geometry"/></mxCell><mxCell id="UiLrThrdoHXxxW19HXCz-39" value="+ getProcessFile(filePath: Path, FILETYPE: Enumerated): FileProcessor" style="text;align=left;verticalAlign=top;spacingLeft=4;spacingRight=4;overflow=hidden;rotatable=0;points=[[0,0.5],[1,0.5]];portConstraint=eastwest;" parent="UiLrThrdoHXxxW19HXCz-36" vertex="1"><mxGeometry y="34" width="410" height="30" as="geometry"/></mxCell><mxCell id="UiLrThrdoHXxxW19HXCz-40" value="frame" style="shape=umlFrame;whiteSpace=wrap;html=1;" parent="WIyWlLk6GJQsqaUBKTNV-1" vertex="1"><mxGeometry x="10" y="-200" width="750" height="880" as="geometry"/></mxCell><mxCell id="UiLrThrdoHXxxW19HXCz-43" value="" style="edgeStyle=orthogonalEdgeStyle;rounded=0;orthogonalLoop=1;jettySize=auto;html=1;exitX=0;exitY=0.885;exitDx=0;exitDy=0;exitPerimeter=0;" parent="WIyWlLk6GJQsqaUBKTNV-1" edge="1"><mxGeometry relative="1" as="geometry"><mxPoint x="900" y="489.00999999999976" as="sourcePoint"/><mxPoint x="760" y="486" as="targetPoint"/><Array as="points"><mxPoint x="900" y="486"/></Array></mxGeometry></mxCell><mxCell id="UiLrThrdoHXxxW19HXCz-45" value="&lt;font style=&quot;font-size: 15px&quot;&gt;n &amp;gt;= 0,&amp;nbsp;where n is&lt;br&gt;number of classes that implements this interface&lt;/font&gt;" style="text;html=1;align=center;verticalAlign=middle;resizable=0;points=[];autosize=1;strokeColor=none;fillColor=none;" parent="WIyWlLk6GJQsqaUBKTNV-1" vertex="1"><mxGeometry x="215" y="125" width="340" height="40" as="geometry"/></mxCell><mxCell id="UiLrThrdoHXxxW19HXCz-47" value="DirectoryObserver Class" style="swimlane;fontStyle=1;align=center;verticalAlign=top;childLayout=stackLayout;horizontal=1;startSize=40;horizontalStack=0;resizeParent=1;resizeParentMax=0;resizeLast=0;collapsible=1;marginBottom=0;" parent="WIyWlLk6GJQsqaUBKTNV-1" vertex="1"><mxGeometry x="900" y="-130" width="300" height="300" as="geometry"/></mxCell><mxCell id="UiLrThrdoHXxxW19HXCz-48" value="- watcher: WatchService&#10;&#10;- watchKey: WatchKey&#10;&#10;- processedDir: Path&#10;&#10;- processedStatsDir: Path" style="text;align=left;verticalAlign=top;spacingLeft=4;spacingRight=4;overflow=hidden;rotatable=0;points=[[0,0.5],[1,0.5]];portConstraint=eastwest;" parent="UiLrThrdoHXxxW19HXCz-47" vertex="1"><mxGeometry y="40" width="300" height="110" as="geometry"/></mxCell><mxCell id="UiLrThrdoHXxxW19HXCz-49" value="" style="line;strokeWidth=1;fillColor=none;align=left;verticalAlign=middle;spacingTop=-1;spacingLeft=3;spacingRight=3;rotatable=0;labelPosition=right;points=[];portConstraint=eastwest;" parent="UiLrThrdoHXxxW19HXCz-47" vertex="1"><mxGeometry y="150" width="300" height="8" as="geometry"/></mxCell><mxCell id="UiLrThrdoHXxxW19HXCz-50" value="+ startWatching(Path): void&#10;&#10;+ stopWatching(): void&#10;&#10;+ initializeWatcher(): void&#10;&#10;+ createProcessedDir(): void&#10;&#10;-  processFile: void" style="text;align=left;verticalAlign=top;spacingLeft=4;spacingRight=4;overflow=hidden;rotatable=0;points=[[0,0.5],[1,0.5]];portConstraint=eastwest;" parent="UiLrThrdoHXxxW19HXCz-47" vertex="1"><mxGeometry y="158" width="300" height="142" as="geometry"/></mxCell><mxCell id="UiLrThrdoHXxxW19HXCz-62" value="TXTFileProcessor Class" style="swimlane;fontStyle=1;align=center;verticalAlign=top;childLayout=stackLayout;horizontal=1;startSize=26;horizontalStack=0;resizeParent=1;resizeParentMax=0;resizeLast=0;collapsible=1;marginBottom=0;" parent="WIyWlLk6GJQsqaUBKTNV-1" vertex="1"><mxGeometry x="270" y="310" width="230" height="300" as="geometry"><mxRectangle x="270" y="310" width="60" height="26" as="alternateBounds"/></mxGeometry></mxCell><mxCell id="UiLrThrdoHXxxW19HXCz-63" value="- fileExtension : String&#10;" style="text;strokeColor=none;fillColor=none;align=left;verticalAlign=top;spacingLeft=4;spacingRight=4;overflow=hidden;rotatable=0;points=[[0,0.5],[1,0.5]];portConstraint=eastwest;" parent="UiLrThrdoHXxxW19HXCz-62" vertex="1"><mxGeometry y="26" width="230" height="34" as="geometry"/></mxCell><mxCell id="UiLrThrdoHXxxW19HXCz-64" value="" style="line;strokeWidth=1;fillColor=none;align=left;verticalAlign=middle;spacingTop=-1;spacingLeft=3;spacingRight=3;rotatable=0;labelPosition=right;points=[];portConstraint=eastwest;" parent="UiLrThrdoHXxxW19HXCz-62" vertex="1"><mxGeometry y="60" width="230" height="8" as="geometry"/></mxCell><mxCell id="UiLrThrdoHXxxW19HXCz-65" value="+ processFile(FILETYPE: Enum): String&#10;&#10;-  readFile(Path): void&#10;&#10;-  moveFile(Path, Path): void&#10;&#10;-  writeStatToFile(Path): void&#10;&#10;-  getMostUsedWords():   String&#10;&#10;-  getNumberOfDots(): int &#10;&#10;-  getNumberOfWords(): int&#10;&#10;+ getStatistics(): StatisticsDTO" style="text;align=left;verticalAlign=top;spacingLeft=4;spacingRight=4;overflow=hidden;rotatable=0;points=[[0,0.5],[1,0.5]];portConstraint=eastwest;" parent="UiLrThrdoHXxxW19HXCz-62" vertex="1"><mxGeometry y="68" width="230" height="232" as="geometry"/></mxCell><mxCell id="UiLrThrdoHXxxW19HXCz-66" value="CSVFileProcessor Class" style="swimlane;fontStyle=1;align=center;verticalAlign=top;childLayout=stackLayout;horizontal=1;startSize=26;horizontalStack=0;resizeParent=1;resizeParentMax=0;resizeLast=0;collapsible=1;marginBottom=0;" parent="WIyWlLk6GJQsqaUBKTNV-1" vertex="1"><mxGeometry x="510" y="310" width="230" height="300" as="geometry"><mxRectangle x="510" y="310" width="60" height="26" as="alternateBounds"/></mxGeometry></mxCell><mxCell id="UiLrThrdoHXxxW19HXCz-67" value="- fileExtension : String&#10;" style="text;align=left;verticalAlign=top;spacingLeft=4;spacingRight=4;overflow=hidden;rotatable=0;points=[[0,0.5],[1,0.5]];portConstraint=eastwest;" parent="UiLrThrdoHXxxW19HXCz-66" vertex="1"><mxGeometry y="26" width="230" height="34" as="geometry"/></mxCell><mxCell id="UiLrThrdoHXxxW19HXCz-68" value="" style="line;strokeWidth=1;fillColor=none;align=left;verticalAlign=middle;spacingTop=-1;spacingLeft=3;spacingRight=3;rotatable=0;labelPosition=right;points=[];portConstraint=eastwest;" parent="UiLrThrdoHXxxW19HXCz-66" vertex="1"><mxGeometry y="60" width="230" height="8" as="geometry"/></mxCell><mxCell id="UiLrThrdoHXxxW19HXCz-69" value="+ processFile(FILETYPE: Enum): String&#10;&#10;-  readFile(Path): void&#10;&#10;-  moveFile(Path, Path): void&#10;&#10;-  writeStatToFile(Path): void&#10;&#10;-  getMostUsedWords():   String&#10;&#10;-  getNumberOfDots(): int &#10;&#10;-  getNumberOfWords(): int&#10;&#10;+ getStatistics(): StatisticsDTO" style="text;align=left;verticalAlign=top;spacingLeft=4;spacingRight=4;overflow=hidden;rotatable=0;points=[[0,0.5],[1,0.5]];portConstraint=eastwest;" parent="UiLrThrdoHXxxW19HXCz-66" vertex="1"><mxGeometry y="68" width="230" height="232" as="geometry"/></mxCell><mxCell id="UiLrThrdoHXxxW19HXCz-72" value="&lt;b&gt;Create&lt;/b&gt;" style="text;html=1;align=center;verticalAlign=middle;resizable=0;points=[];autosize=1;strokeColor=none;fillColor=none;" parent="WIyWlLk6GJQsqaUBKTNV-1" vertex="1"><mxGeometry x="810" y="470" width="50" height="20" as="geometry"/></mxCell><mxCell id="UiLrThrdoHXxxW19HXCz-75" value="" style="endArrow=open;endFill=1;endSize=12;html=1;rounded=0;exitX=0.465;exitY=1.011;exitDx=0;exitDy=0;exitPerimeter=0;entryX=0.339;entryY=-0.038;entryDx=0;entryDy=0;entryPerimeter=0;" parent="WIyWlLk6GJQsqaUBKTNV-1" source="UiLrThrdoHXxxW19HXCz-50" target="UiLrThrdoHXxxW19HXCz-36" edge="1"><mxGeometry width="160" relative="1" as="geometry"><mxPoint x="1040" y="270" as="sourcePoint"/><mxPoint x="1040" y="430" as="targetPoint"/></mxGeometry></mxCell><mxCell id="UiLrThrdoHXxxW19HXCz-76" value="&lt;b&gt;&lt;font style=&quot;font-size: 20px&quot;&gt;Triggers&lt;/font&gt;&lt;/b&gt;" style="edgeLabel;html=1;align=center;verticalAlign=middle;resizable=0;points=[];" parent="UiLrThrdoHXxxW19HXCz-75" vertex="1" connectable="0"><mxGeometry x="-0.0887" y="6" relative="1" as="geometry"><mxPoint x="16" as="offset"/></mxGeometry></mxCell><mxCell id="UiLrThrdoHXxxW19HXCz-77" value="Main Class" style="swimlane;fontStyle=1;align=center;verticalAlign=top;childLayout=stackLayout;horizontal=1;startSize=26;horizontalStack=0;resizeParent=1;resizeParentMax=0;resizeLast=0;collapsible=1;marginBottom=0;" parent="WIyWlLk6GJQsqaUBKTNV-1" vertex="1"><mxGeometry x="10" y="-510" width="390" height="180" as="geometry"/></mxCell><mxCell id="UiLrThrdoHXxxW19HXCz-79" value="" style="line;strokeWidth=1;fillColor=none;align=left;verticalAlign=middle;spacingTop=-1;spacingLeft=3;spacingRight=3;rotatable=0;labelPosition=right;points=[];portConstraint=eastwest;" parent="UiLrThrdoHXxxW19HXCz-77" vertex="1"><mxGeometry y="26" width="390" height="8" as="geometry"/></mxCell><mxCell id="UiLrThrdoHXxxW19HXCz-80" value="-  getFilePath(Path): boolean&#10;&#10;-  getPresentWorkingDir:  String&#10;&#10;-  getAllStatistics: List&lt;String&gt;&#10;&#10;-  fileWatchInProcess:  void()&#10;&#10;-  main" style="text;align=left;verticalAlign=top;spacingLeft=4;spacingRight=4;overflow=hidden;rotatable=0;points=[[0,0.5],[1,0.5]];portConstraint=eastwest;" parent="UiLrThrdoHXxxW19HXCz-77" vertex="1"><mxGeometry y="34" width="390" height="146" as="geometry"/></mxCell><mxCell id="UiLrThrdoHXxxW19HXCz-87" value="StatisticsDTO Class" style="swimlane;fontStyle=1;align=center;verticalAlign=top;childLayout=stackLayout;horizontal=1;startSize=26;horizontalStack=0;resizeParent=1;resizeParentMax=0;resizeLast=0;collapsible=1;marginBottom=0;" parent="WIyWlLk6GJQsqaUBKTNV-1" vertex="1"><mxGeometry x="900" y="-504" width="300" height="174" as="geometry"/></mxCell><mxCell id="UiLrThrdoHXxxW19HXCz-88" value="- numberOfDots: int&#10;&#10;- createdAt: Date&#10;&#10;- mostUsedWords&#10;&#10;- numberOfWords&#10;" style="text;align=left;verticalAlign=top;spacingLeft=4;spacingRight=4;overflow=hidden;rotatable=0;points=[[0,0.5],[1,0.5]];portConstraint=eastwest;" parent="UiLrThrdoHXxxW19HXCz-87" vertex="1"><mxGeometry y="26" width="300" height="114" as="geometry"/></mxCell><mxCell id="UiLrThrdoHXxxW19HXCz-89" value="" style="line;strokeWidth=1;fillColor=none;align=left;verticalAlign=middle;spacingTop=-1;spacingLeft=3;spacingRight=3;rotatable=0;labelPosition=right;points=[];portConstraint=eastwest;" parent="UiLrThrdoHXxxW19HXCz-87" vertex="1"><mxGeometry y="140" width="300" height="8" as="geometry"/></mxCell><mxCell id="UiLrThrdoHXxxW19HXCz-90" value="+ displayStat(type): type" style="text;align=left;verticalAlign=top;spacingLeft=4;spacingRight=4;overflow=hidden;rotatable=0;points=[[0,0.5],[1,0.5]];portConstraint=eastwest;" parent="UiLrThrdoHXxxW19HXCz-87" vertex="1"><mxGeometry y="148" width="300" height="26" as="geometry"/></mxCell><mxCell id="UiLrThrdoHXxxW19HXCz-97" value="" style="html=1;whiteSpace=wrap;aspect=fixed;shape=isoRectangle;" parent="WIyWlLk6GJQsqaUBKTNV-1" vertex="1"><mxGeometry x="1020" y="-154" width="40" height="24" as="geometry"/></mxCell><mxCell id="dNCwOJdc9zjZ7GDqTgej-2" value="" style="endArrow=classic;html=1;rounded=0;exitX=0.465;exitY=0.935;exitDx=0;exitDy=0;exitPerimeter=0;" parent="WIyWlLk6GJQsqaUBKTNV-1" source="UiLrThrdoHXxxW19HXCz-90" target="UiLrThrdoHXxxW19HXCz-97" edge="1"><mxGeometry width="50" height="50" relative="1" as="geometry"><mxPoint x="1040" y="-320" as="sourcePoint"/><mxPoint x="850" y="-40" as="targetPoint"/></mxGeometry></mxCell><mxCell id="dNCwOJdc9zjZ7GDqTgej-3" value="" style="rhombus;whiteSpace=wrap;html=1;" parent="WIyWlLk6GJQsqaUBKTNV-1" vertex="1"><mxGeometry x="400" y="-435" width="40" height="30" as="geometry"/></mxCell><mxCell id="dNCwOJdc9zjZ7GDqTgej-4" value="" style="endArrow=classic;html=1;rounded=0;entryX=0;entryY=0.5;entryDx=0;entryDy=0;exitX=1;exitY=0.5;exitDx=0;exitDy=0;" parent="WIyWlLk6GJQsqaUBKTNV-1" source="dNCwOJdc9zjZ7GDqTgej-3" target="UiLrThrdoHXxxW19HXCz-88" edge="1"><mxGeometry width="50" height="50" relative="1" as="geometry"><mxPoint x="450" y="-421" as="sourcePoint"/><mxPoint x="880" y="-420" as="targetPoint"/></mxGeometry></mxCell></root></mxGraphModel></diagram></mxfile>